<?xml version="1.0" encoding="utf-8"?>
<!-- Generator: Adobe Illustrator 25.0.0, SVG Export Plug-In . SVG Version: 6.00 Build 0)  -->
<svg version="1.1" id="Layer_1" xmlns="http://www.w3.org/2000/svg" xmlns:xlink="http://www.w3.org/1999/xlink" x="0px" y="0px"
	 viewBox="0 0 334.6 60" style="enable-background:new 0 0 334.6 60;" xml:space="preserve">
<style type="text/css">
	.st0{fill:#12233B;}
	.st1{fill-rule:evenodd;clip-rule:evenodd;fill:#F3D25E;}
	.st2{fill:#638BC4;}
	.st3{fill:#305CA5;}
	.st4{fill:#273D72;}
</style>
<g id="Logo__x2B__Wordmark">
	<g>
		<path class="st0" d="M107.6,24.3c-0.1,0.1-0.2,0.2-0.3,0.3c-0.1,0.1-0.2,0.1-0.3,0.1c-0.1,0-0.3-0.1-0.5-0.2
			c-0.2-0.1-0.4-0.3-0.7-0.4c-0.3-0.2-0.6-0.3-1-0.4c-0.4-0.1-0.9-0.2-1.4-0.2c-0.5,0-1,0.1-1.3,0.2c-0.4,0.1-0.7,0.3-1,0.5
			c-0.3,0.2-0.5,0.5-0.6,0.8c-0.1,0.3-0.2,0.6-0.2,1c0,0.5,0.1,0.9,0.4,1.2c0.2,0.3,0.5,0.6,0.9,0.8s0.8,0.4,1.3,0.6
			c0.5,0.2,1,0.3,1.5,0.5c0.5,0.2,1,0.4,1.5,0.6c0.5,0.2,0.9,0.5,1.3,0.9c0.4,0.3,0.7,0.8,0.9,1.3c0.2,0.5,0.4,1.1,0.4,1.8
			c0,0.8-0.1,1.5-0.4,2.2c-0.3,0.7-0.6,1.3-1.1,1.8c-0.5,0.5-1.1,0.9-1.8,1.2c-0.7,0.3-1.6,0.4-2.5,0.4c-0.6,0-1.1-0.1-1.6-0.2
			c-0.5-0.1-1-0.3-1.5-0.5c-0.5-0.2-0.9-0.4-1.3-0.7c-0.4-0.3-0.8-0.6-1.1-0.9l0.7-1.2c0.1-0.1,0.2-0.2,0.3-0.2s0.2-0.1,0.3-0.1
			c0.2,0,0.4,0.1,0.6,0.3c0.2,0.2,0.5,0.4,0.8,0.6c0.3,0.2,0.7,0.4,1.2,0.6c0.5,0.2,1,0.3,1.7,0.3c0.5,0,1-0.1,1.4-0.2
			c0.4-0.1,0.8-0.3,1.1-0.6c0.3-0.3,0.5-0.6,0.7-0.9c0.2-0.4,0.2-0.8,0.2-1.2c0-0.5-0.1-0.9-0.4-1.2c-0.2-0.3-0.5-0.6-0.9-0.8
			c-0.4-0.2-0.8-0.4-1.3-0.6c-0.5-0.2-1-0.3-1.5-0.5c-0.5-0.2-1-0.4-1.5-0.6s-0.9-0.5-1.3-0.9c-0.4-0.4-0.7-0.8-0.9-1.3
			c-0.2-0.5-0.4-1.2-0.4-2c0-0.6,0.1-1.2,0.4-1.8c0.2-0.6,0.6-1.1,1.1-1.5c0.5-0.4,1-0.8,1.7-1.1c0.7-0.3,1.5-0.4,2.3-0.4
			c1,0,1.9,0.2,2.7,0.5c0.8,0.3,1.5,0.8,2.1,1.3L107.6,24.3z"/>
		<path class="st0" d="M122.2,36.7l0,2.1h-10.8V21.4h10.8v2.1H114V29h6.6v2H114v5.7H122.2z"/>
		<path class="st0" d="M142.9,21.4v17.4h-2.2V26.5c0-0.2,0-0.4,0-0.6c0-0.2,0-0.4,0-0.6l-5.8,10.6c-0.2,0.4-0.5,0.6-0.9,0.6h-0.4
			c-0.4,0-0.7-0.2-0.9-0.6l-5.9-10.6c0,0.5,0.1,0.9,0.1,1.3v12.4h-2.3V21.4h1.9c0.2,0,0.4,0,0.5,0.1c0.1,0,0.2,0.2,0.4,0.4l5.8,10.4
			c0.1,0.2,0.2,0.4,0.3,0.7c0.1,0.2,0.2,0.5,0.3,0.7c0.2-0.5,0.4-0.9,0.6-1.4l5.7-10.4c0.1-0.2,0.2-0.3,0.3-0.4
			c0.1,0,0.3-0.1,0.5-0.1H142.9z"/>
		<path class="st0" d="M161.2,38.8h-2c-0.2,0-0.4-0.1-0.6-0.2c-0.1-0.1-0.2-0.3-0.3-0.4l-1.5-4h-7.7l-1.5,4
			c-0.1,0.2-0.2,0.3-0.3,0.4c-0.2,0.1-0.3,0.2-0.6,0.2h-2l6.9-17.4h2.6L161.2,38.8z M156.1,32.3l-2.6-6.7c-0.2-0.5-0.4-1-0.6-1.7
			c-0.1,0.3-0.2,0.7-0.3,1c-0.1,0.3-0.2,0.6-0.3,0.8l-2.6,6.7H156.1z"/>
		<path class="st0" d="M177.3,21.4v17.4H176c-0.2,0-0.4,0-0.5-0.1c-0.1-0.1-0.3-0.2-0.4-0.4l-9.8-12.7c0,0.2,0,0.4,0,0.6
			c0,0.2,0,0.4,0,0.6v11.9h-2.3V21.4h1.3c0.2,0,0.4,0,0.5,0.1c0.1,0.1,0.2,0.2,0.4,0.4l9.8,12.7c0-0.2,0-0.5-0.1-0.7
			c0-0.2,0-0.4,0-0.6V21.4H177.3z"/>
		<path class="st0" d="M193,23.6h-5.5v15.2h-2.6V23.6h-5.5v-2.2H193V23.6z"/>
		<path class="st0" d="M197.6,38.8H195V21.4h2.6V38.8z"/>
		<path class="st0" d="M213.7,35.1c0.1,0,0.3,0.1,0.4,0.2l1,1.1c-0.7,0.8-1.6,1.5-2.6,1.9c-1,0.5-2.2,0.7-3.7,0.7
			c-1.3,0-2.4-0.2-3.4-0.7s-1.9-1-2.6-1.8c-0.7-0.8-1.3-1.7-1.7-2.8c-0.4-1.1-0.6-2.3-0.6-3.6c0-1.3,0.2-2.5,0.6-3.6
			c0.4-1.1,1-2,1.7-2.8c0.7-0.8,1.6-1.4,2.7-1.8c1-0.4,2.2-0.7,3.5-0.7c1.2,0,2.3,0.2,3.3,0.6c1,0.4,1.8,0.9,2.5,1.6l-0.8,1.2
			c-0.1,0.1-0.1,0.2-0.2,0.2c-0.1,0.1-0.2,0.1-0.3,0.1c-0.2,0-0.3-0.1-0.5-0.2c-0.2-0.2-0.5-0.3-0.8-0.5s-0.7-0.4-1.2-0.5
			c-0.5-0.2-1.1-0.2-1.8-0.2c-0.9,0-1.7,0.2-2.4,0.5c-0.7,0.3-1.3,0.7-1.9,1.3c-0.5,0.6-0.9,1.3-1.2,2.1c-0.3,0.8-0.4,1.8-0.4,2.8
			c0,1.1,0.1,2,0.4,2.8c0.3,0.8,0.7,1.5,1.2,2.1c0.5,0.6,1.1,1,1.9,1.3c0.7,0.3,1.5,0.4,2.3,0.4c0.5,0,0.9,0,1.3-0.1
			c0.4-0.1,0.8-0.2,1.1-0.3c0.3-0.1,0.7-0.3,0.9-0.5c0.3-0.2,0.6-0.4,0.9-0.7c0.1-0.1,0.1-0.1,0.2-0.1
			C213.6,35.1,213.6,35.1,213.7,35.1z"/>
		<path class="st0" d="M233.2,24.8c-0.1,0.2-0.2,0.3-0.4,0.4c-0.1,0.1-0.3,0.1-0.5,0.1c-0.2,0-0.4-0.1-0.6-0.2
			c-0.2-0.1-0.5-0.2-0.7-0.4c-0.3-0.1-0.6-0.3-0.9-0.4c-0.3-0.1-0.7-0.2-1.2-0.2c-0.8,0-1.3,0.2-1.7,0.5c-0.4,0.3-0.6,0.8-0.6,1.3
			c0,0.4,0.1,0.6,0.3,0.9c0.2,0.2,0.5,0.4,0.9,0.6c0.4,0.2,0.8,0.3,1.3,0.5c0.5,0.1,1,0.3,1.4,0.5c0.5,0.2,1,0.4,1.4,0.6
			c0.5,0.2,0.9,0.5,1.3,0.9c0.4,0.4,0.7,0.8,0.9,1.3c0.2,0.5,0.3,1.1,0.3,1.9c0,0.8-0.1,1.6-0.4,2.3c-0.3,0.7-0.7,1.3-1.2,1.9
			c-0.5,0.5-1.2,0.9-2,1.2c-0.8,0.3-1.7,0.5-2.7,0.5c-0.5,0-1.1-0.1-1.7-0.2c-0.6-0.1-1.1-0.3-1.6-0.5c-0.5-0.2-1-0.4-1.5-0.7
			c-0.5-0.3-0.9-0.6-1.2-0.9l1.2-1.9c0.1-0.1,0.2-0.3,0.4-0.3c0.2-0.1,0.3-0.1,0.5-0.1c0.2,0,0.5,0.1,0.7,0.2
			c0.2,0.2,0.5,0.3,0.8,0.5c0.3,0.2,0.7,0.4,1.1,0.5c0.4,0.2,0.9,0.2,1.4,0.2c0.7,0,1.3-0.2,1.7-0.5c0.4-0.3,0.6-0.8,0.6-1.6
			c0-0.4-0.1-0.7-0.3-1c-0.2-0.3-0.5-0.5-0.9-0.6c-0.4-0.2-0.8-0.3-1.3-0.4c-0.5-0.1-0.9-0.3-1.4-0.4c-0.5-0.2-1-0.4-1.4-0.6
			c-0.5-0.2-0.9-0.5-1.3-0.9c-0.4-0.4-0.7-0.8-0.9-1.4c-0.2-0.6-0.3-1.3-0.3-2.1c0-0.7,0.1-1.3,0.4-1.9c0.3-0.6,0.7-1.2,1.2-1.7
			c0.5-0.5,1.1-0.9,1.9-1.2c0.7-0.3,1.6-0.4,2.6-0.4c0.5,0,1.1,0,1.6,0.1c0.5,0.1,1,0.2,1.5,0.4c0.5,0.2,0.9,0.4,1.3,0.6
			c0.4,0.2,0.8,0.5,1.1,0.8L233.2,24.8z"/>
		<path class="st0" d="M248.4,34.2c0.1,0,0.2,0,0.3,0.1c0.1,0,0.2,0.1,0.3,0.2l1.6,1.7c-0.7,0.9-1.6,1.6-2.7,2.1
			c-1.1,0.5-2.3,0.7-3.8,0.7c-1.3,0-2.5-0.2-3.6-0.7c-1.1-0.5-2-1.1-2.7-1.9c-0.7-0.8-1.3-1.8-1.7-2.9c-0.4-1.1-0.6-2.3-0.6-3.6
			c0-1.3,0.2-2.5,0.6-3.6c0.4-1.1,1-2,1.8-2.8c0.8-0.8,1.7-1.4,2.8-1.9c1.1-0.4,2.3-0.7,3.6-0.7c0.7,0,1.3,0.1,1.9,0.2
			c0.6,0.1,1.1,0.3,1.6,0.5c0.5,0.2,1,0.5,1.4,0.7c0.4,0.3,0.8,0.6,1.1,0.9l-1.4,1.8c-0.1,0.1-0.2,0.2-0.3,0.3
			c-0.1,0.1-0.3,0.1-0.5,0.1c-0.1,0-0.3,0-0.4-0.1c-0.1-0.1-0.3-0.1-0.4-0.2s-0.3-0.2-0.5-0.3c-0.2-0.1-0.4-0.2-0.6-0.3
			c-0.2-0.1-0.5-0.2-0.8-0.2s-0.7-0.1-1.1-0.1c-0.7,0-1.3,0.1-1.9,0.4c-0.6,0.2-1,0.6-1.5,1.1c-0.4,0.5-0.7,1.1-0.9,1.8
			c-0.2,0.7-0.3,1.5-0.3,2.4c0,0.9,0.1,1.7,0.4,2.4c0.2,0.7,0.6,1.3,1,1.8c0.4,0.5,0.9,0.8,1.5,1.1c0.6,0.2,1.2,0.4,1.8,0.4
			c0.4,0,0.7,0,1-0.1c0.3,0,0.6-0.1,0.9-0.2c0.3-0.1,0.5-0.2,0.7-0.3s0.5-0.3,0.7-0.5c0.1-0.1,0.2-0.1,0.3-0.2
			C248.2,34.3,248.3,34.2,248.4,34.2z"/>
		<path class="st0" d="M267.4,21.2v17.6h-4.1v-7.4h-7.2v7.4H252V21.2h4.1v7.4h7.2v-7.4H267.4z"/>
		<path class="st0" d="M287.9,30c0,1.3-0.2,2.5-0.7,3.6c-0.4,1.1-1.1,2-1.9,2.9c-0.8,0.8-1.8,1.4-2.9,1.9c-1.1,0.5-2.4,0.7-3.7,0.7
			c-1.4,0-2.6-0.2-3.7-0.7c-1.1-0.5-2.1-1.1-2.9-1.9c-0.8-0.8-1.4-1.8-1.9-2.9c-0.4-1.1-0.7-2.3-0.7-3.6c0-1.3,0.2-2.5,0.7-3.6
			s1.1-2,1.9-2.9c0.8-0.8,1.8-1.4,2.9-1.9c1.1-0.5,2.4-0.7,3.7-0.7c1.4,0,2.6,0.2,3.7,0.7c1.1,0.5,2.1,1.1,2.9,1.9
			c0.8,0.8,1.4,1.8,1.9,2.9C287.6,27.5,287.9,28.7,287.9,30z M283.7,30c0-0.9-0.1-1.7-0.3-2.4c-0.2-0.7-0.5-1.3-1-1.8
			s-0.9-0.9-1.6-1.1c-0.6-0.3-1.3-0.4-2.1-0.4c-0.8,0-1.5,0.1-2.1,0.4c-0.6,0.3-1.1,0.6-1.6,1.1c-0.4,0.5-0.7,1.1-1,1.8
			c-0.2,0.7-0.3,1.5-0.3,2.4c0,0.9,0.1,1.7,0.3,2.4c0.2,0.7,0.5,1.3,1,1.8c0.4,0.5,0.9,0.9,1.6,1.1c0.6,0.3,1.3,0.4,2.1,0.4
			c0.8,0,1.5-0.1,2.1-0.4c0.6-0.3,1.1-0.6,1.6-1.1s0.7-1.1,1-1.8C283.6,31.7,283.7,30.9,283.7,30z"/>
		<path class="st0" d="M300.7,35.5v3.3h-10.6V21.2h4.1v14.3H300.7z"/>
		<path class="st0" d="M319,38.8h-3.2c-0.4,0-0.6-0.1-0.9-0.2c-0.2-0.2-0.4-0.4-0.5-0.6l-1-3.1h-6.7l-1,3.1
			c-0.1,0.2-0.2,0.4-0.5,0.6c-0.2,0.2-0.5,0.3-0.9,0.3h-3.2l6.8-17.6h4.2L319,38.8z M312.5,32.1l-1.6-4.8c-0.1-0.3-0.2-0.7-0.4-1.1
			c-0.1-0.4-0.3-0.9-0.4-1.3c-0.1,0.5-0.2,0.9-0.4,1.4c-0.1,0.4-0.3,0.8-0.4,1.1l-1.6,4.8H312.5z"/>
		<path class="st0" d="M334.6,38.8h-3.7c-0.7,0-1.2-0.3-1.5-0.8l-2.9-5.1c-0.1-0.2-0.3-0.4-0.5-0.5c-0.2-0.1-0.4-0.2-0.7-0.2h-1v6.5
			h-4.1V21.2h5.7c1.3,0,2.4,0.1,3.3,0.4c0.9,0.3,1.6,0.6,2.2,1.1c0.6,0.5,1,1,1.2,1.7c0.3,0.6,0.4,1.3,0.4,2.1
			c0,0.6-0.1,1.1-0.2,1.6c-0.2,0.5-0.4,1-0.7,1.4c-0.3,0.4-0.7,0.8-1.1,1.2c-0.4,0.3-0.9,0.6-1.5,0.8c0.3,0.1,0.5,0.3,0.7,0.5
			s0.4,0.4,0.6,0.7L334.6,38.8z M325.9,29.5c0.6,0,1-0.1,1.4-0.2c0.4-0.1,0.7-0.3,1-0.6c0.2-0.2,0.4-0.5,0.5-0.9
			c0.1-0.3,0.2-0.7,0.2-1.1c0-0.8-0.3-1.4-0.8-1.8c-0.5-0.4-1.3-0.7-2.3-0.7h-1.6v5.2H325.9z"/>
	</g>
	<g id="S2_Logo_1_">
		<g>
			<path class="st1" d="M83.2,18.3c-2.9,1.8-5,2.9-7.4,4.3c-14.4,8.7-28.3,18.4-39,31.1L31.6,60L15.8,34.8
				c3.5,2.8,12.4,10.7,16,12.5l11.6-8.8C51.5,32.8,74.4,20.4,83.2,18.3z"/>
		</g>
		<path class="st2" d="M23.2,37.1c0.4,0.3,0.7,0.6,1.1,0.9c-3.1-8.7-8.6-17.4-16.4-24.9c-2.6,0-5.2,0-7.9,0
			C10,20.3,17.8,28.7,23.2,37.1z"/>
		<path class="st3" d="M25.8,39.4c0.3,0.3,0.7,0.5,1,0.8c-0.5-11.8-4.9-23.9-13.3-34.3c-2.5,0-5,0-7.5,0
			C16.7,15.8,23.3,27.8,25.8,39.4z"/>
		<path class="st4" d="M27.9,41.1c1.2,1,2.4,1.9,3.4,2.6c2.6-12.7,0.4-26.4-6.5-38.3c11.7-0.2,23.4-0.3,35-0.5
			c2.6,5.8,4.1,12,4.5,18.4c1-0.5,2-1,3.1-1.5C66.9,15.2,65.1,8.2,61.6,0C45.6,0,29.7,0,13.7,0C24.1,12.3,28.8,27.2,27.9,41.1z"/>
	</g>
</g>
</svg>
